<svg width="236" height="131" viewBox="0 0 236 131" fill="none" xmlns="http://www.w3.org/2000/svg">
/***************************************************
 * Generated by SVG Artista on 3/23/2024, 1:04:52 PM
 * MIT license (https://opensource.org/licenses/MIT)
 * W. https://svgartista.net
 **************************************************/

svg .svg-elem-1{fill:transparent;-webkit-transition:fill 0.7s cubic-bezier(0.6,0.04,0.98,0.335) 0.8s;transition:fill 0.7s cubic-bezier(0.6,0.04,0.98,0.335) 0.8s}svg.active .svg-elem-1{fill:rgb(255,255,255)}svg .svg-elem-2{fill:transparent;-webkit-transition:fill 0.7s cubic-bezier(0.6,0.04,0.98,0.335) 0.9s;transition:fill 0.7s cubic-bezier(0.6,0.04,0.98,0.335) 0.9s}svg.active .svg-elem-2{fill:rgb(255,255,255)}svg .svg-elem-3{fill:transparent;-webkit-transition:fill 0.7s cubic-bezier(0.6,0.04,0.98,0.335) 1s;transition:fill 0.7s cubic-bezier(0.6,0.04,0.98,0.335) 1s}svg.active .svg-elem-3{fill:rgb(255,255,255)}svg .svg-elem-4{fill:transparent;-webkit-transition:fill 0.7s cubic-bezier(0.6,0.04,0.98,0.335) 1.1s;transition:fill 0.7s cubic-bezier(0.6,0.04,0.98,0.335) 1.1s}svg.active .svg-elem-4{fill:rgb(255,255,255)}svg .svg-elem-5{fill:transparent;-webkit-transition:fill 0.7s cubic-bezier(0.6,0.04,0.98,0.335) 1.2000000000000002s;transition:fill 0.7s cubic-bezier(0.6,0.04,0.98,0.335) 1.2000000000000002s}svg.active .svg-elem-5{fill:rgb(255,255,255)}svg .svg-elem-6{fill:transparent;-webkit-transition:fill 0.7s cubic-bezier(0.6,0.04,0.98,0.335) 1.3s;transition:fill 0.7s cubic-bezier(0.6,0.04,0.98,0.335) 1.3s}svg.active .svg-elem-6{fill:rgb(255,255,255)}svg .svg-elem-7{fill:transparent;-webkit-transition:fill 0.7s cubic-bezier(0.6,0.04,0.98,0.335) 1.4000000000000001s;transition:fill 0.7s cubic-bezier(0.6,0.04,0.98,0.335) 1.4000000000000001s}svg.active .svg-elem-7{fill:rgb(255,255,255)}svg .svg-elem-8{fill:transparent;-webkit-transition:fill 0.7s cubic-bezier(0.6,0.04,0.98,0.335) 1.5s;transition:fill 0.7s cubic-bezier(0.6,0.04,0.98,0.335) 1.5s}svg.active .svg-elem-8{fill:rgb(255,255,255)}svg .svg-elem-9{fill:transparent;-webkit-transition:fill 0.7s cubic-bezier(0.6,0.04,0.98,0.335) 1.6s;transition:fill 0.7s cubic-bezier(0.6,0.04,0.98,0.335) 1.6s}svg.active .svg-elem-9{fill:rgb(255,255,255)}




<path d="M1.49987 6C2.2998 4.3 3.99966 2.3 5.29954 1.5C7.09939 0.2 12.8989 0 75.7935 0L75.4935 40.5L0 41V25C0 12.8 0.399966 8.3 1.49987 6Z" fill="white" class="svg-elem-1"></path>
<path d="M77.9933 41V20.5V0H156.986V41H77.9933Z" fill="white" class="svg-elem-2"></path>
<path d="M159.986 41V20.5V0H193.483C221.281 0 227.48 0.3 229.98 1.5C231.68 2.3 233.68 4.4 234.48 6C235.58 8.3 235.98 12.8 235.98 41H159.986Z" fill="white" class="svg-elem-3"></path>
<path d="M0 87V65V43H75.9935V87H0Z" fill="white" class="svg-elem-4"></path>
<path d="M159.986 87V65V43H235.98V87H159.986Z" fill="white" class="svg-elem-5"></path>
<path d="M0 123V106V89L75.4935 89.5V130.5L45.4961 130.8C28.9975 131 13.4988 130.8 10.9991 130.4C7.69934 129.9 5.59952 128.9 0 123Z" fill="white" class="svg-elem-6"></path>
<path d="M77.9933 131V110V89H156.986V131H77.9933Z" fill="white" class="svg-elem-7"></path>
<path d="M159.986 131V110V89H235.98V105.2C236.08 120.6 235.88 121.7 233.78 125C232.38 127 229.98 129 227.98 129.7C225.581 130.5 214.482 130.9 159.986 131Z" fill="white" class="svg-elem-8"></path>
<path d="M77.9933 87V65V43H156.986V87H77.9933Z" fill="white" class="svg-elem-9"></path>
</svg>



