<svg width="100%" height="100%" viewBox="0 0 281 662" fill="none" xmlns="http://www.w3.org/2000/svg">
<rect x="2" y="20" width="277" height="622" fill="white"/>
<path d="M14.5 662L27.0574 641.75H1.94263L14.5 662Z" fill="white"/>
<path d="M37.5 662L49.1913 641.75H25.8087L37.5 662Z" fill="white"/>
<path d="M61 662L73.9904 641.75H48.0096L61 662Z" fill="white"/>
<path d="M84.5 662L96.1913 641.75H72.8087L84.5 662Z" fill="white"/>
<path d="M107 662L119.124 641.75H94.8756L107 662Z" fill="white"/>
<path d="M129.5 662L141.191 641.75H117.809L129.5 662Z" fill="white"/>
<path d="M151.5 662L163.191 641.75H139.809L151.5 662Z" fill="white"/>
<path d="M174 662L186.124 641.75H161.876L174 662Z" fill="white"/>
<path d="M196.5 662L208.191 641.75H184.809L196.5 662Z" fill="white"/>
<path d="M220 662L232.99 641.75H207.01L220 662Z" fill="white"/>
<path d="M243.5 662L255.191 641.75H231.809L243.5 662Z" fill="white"/>
<path d="M266.5 662L279.057 641.75H253.943L266.5 662Z" fill="white"/>
<path d="M14.5 0L27.0574 20.25H1.94263L14.5 0Z" fill="white"/>
<path d="M37.5 0L49.1913 20.25H25.8087L37.5 0Z" fill="white"/>
<path d="M61 0L73.9904 20.25H48.0096L61 0Z" fill="white"/>
<path d="M84.5 0L96.1913 20.25H72.8087L84.5 0Z" fill="white"/>
<path d="M107 0L119.124 20.25H94.8756L107 0Z" fill="white"/>
<path d="M129.5 0L141.191 20.25H117.809L129.5 0Z" fill="white"/>
<path d="M151.5 0L163.191 20.25H139.809L151.5 0Z" fill="white"/>
<path d="M174 0L186.124 20.25H161.876L174 0Z" fill="white"/>
<path d="M196.5 0L208.191 20.25H184.809L196.5 0Z" fill="white"/>
<path d="M220 0L232.99 20.25H207.01L220 0Z" fill="white"/>
<path d="M243.5 0L255.191 20.25H231.809L243.5 0Z" fill="white"/>
<path d="M266.5 0L279.057 20.25H253.943L266.5 0Z" fill="white"/>
</svg>
