<svg width="165" height="109" viewBox="0 0 165 109" fill="none" xmlns="http://www.w3.org/2000/svg">
<g clip-path="url(#clip0_3_4)">
<path d="M126.593 24.2514V69.1953C126.593 69.9619 126.557 70.7187 126.487 71.4648C125.336 83.7953 114.891 93.4476 102.189 93.4476H62.8102C50.11 93.4476 39.6635 83.7953 38.5114 71.4648L38.4034 43.0026V24.2514C38.4034 10.8542 49.3382 0 62.8102 0H102.19C115.662 0 126.593 10.8542 126.593 24.2514Z" fill="#716060"/>
<path d="M126.593 43.0023V69.1953C126.593 69.9619 126.557 70.7187 126.487 71.4648H38.5114L38.4034 43.0026H126.593V43.0023Z" fill="#E5CD90"/>
<path d="M142.374 60.2971C119.594 67.7632 83.151 67.0964 83.151 67.0964H81.8487C81.8487 67.0964 45.404 67.7632 22.624 60.2971C-0.152428 52.8308 -7.96221 78.1014 9.60932 89.5887C26.3152 100.508 64.7667 100.156 82.5 99.9267C100.233 100.156 138.684 100.508 155.39 89.5884C172.962 78.1014 165.154 52.8308 142.374 60.2971Z" fill="#594848"/>
<path opacity="0.07" d="M142.374 60.2971C137.565 61.8733 132.149 63.0826 126.594 64.0167V43.0023V24.2514C126.593 10.8542 115.662 0 102.19 0H83.2315V99.935C101.268 100.163 138.907 100.364 155.39 89.5887C172.962 78.1014 165.154 52.8308 142.374 60.2971Z" fill="#050101"/>
</g>
<defs>
<clipPath id="clip0_3_4">
<rect width="165" height="109" fill="white"/>
</clipPath>
</defs>
</svg>
