<svg width="165" height="165" viewBox="0 0 165 165" fill="none" xmlns="http://www.w3.org/2000/svg">
<g clip-path="url(#clip0_3_10)">
<path d="M164.962 96.1624C164.066 87.3707 147.434 81.2928 123.259 79.4549C120.948 65.9046 118.274 50.2696 117.494 46.0199C115.701 36.2865 102.881 30.8431 93.3588 37.8623C88.3636 41.5433 83.8974 41.8049 81.5306 41.8049C79.1639 41.8049 76.5355 42.3286 69.7025 37.8623C59.8028 31.3867 47.3605 36.2861 45.5729 46.0199C44.6161 51.2112 40.8394 73.3622 38.357 87.9798C14.57 94.6871 -0.873653 104.129 0.0377146 113.026C1.40734 126.44 39.4398 133.545 84.9798 128.887C130.53 124.23 166.337 109.582 164.962 96.1624ZM42.6322 99.37L45.2606 85.704C45.2606 85.704 92.0497 93.0606 118.334 79.3946L120.963 90.9611C120.963 90.9611 92.5734 108.832 42.6322 99.37Z" fill="black"/>
</g>
<defs>
<clipPath id="clip0_3_10">
<rect width="165" height="165" fill="white"/>
</clipPath>
</defs>
</svg>
